<svg xmlns="http://www.w3.org/2000/svg" viewBox="0 0 920 620">
  <defs>
    <linearGradient id="bg" x1="0" y1="0" x2="1" y2="1">
      <stop stop-color="#111827"/>
      <stop offset=".52" stop-color="#0b1324"/>
      <stop offset="1" stop-color="#10131d"/>
    </linearGradient>
    <linearGradient id="pulse" x1="120" y1="90" x2="820" y2="520" gradientUnits="userSpaceOnUse">
      <stop stop-color="#16c7b7"/>
      <stop offset=".48" stop-color="#7c5cff"/>
      <stop offset="1" stop-color="#ffb35c"/>
    </linearGradient>
  </defs>
  <rect width="920" height="620" rx="44" fill="url(#bg)"/>
  <path d="M96 445c138-111 243-174 409-185 119-8 208-55 318-159" fill="none" stroke="url(#pulse)" stroke-width="16" stroke-linecap="round" opacity=".58"/>
  <path d="M122 508c149-57 266-78 418-52 119 20 196-7 286-83" fill="none" stroke="#f7f8ff" stroke-width="3" stroke-dasharray="9 17" opacity=".35"/>
  <circle cx="584" cy="148" r="45" fill="#f7f8ff"/>
  <path d="M546 212c-49 21-94 63-123 114l-95 1c-18 0-33 14-33 32 0 17 14 31 32 31h117c13 0 25-8 31-19l33-60 104 96c14 13 36 12 49-2 13-14 12-36-2-49l-78-72 117-20c19-3 31-21 28-39-3-19-21-31-39-28l-98 17-20-5c-8-2-16-1-23 3Z" fill="url(#pulse)"/>
  <path d="M436 415l-88 80c-14 13-15 34-3 48 13 14 34 15 48 3l104-94c11-10 14-27 6-40l-15-25-52 28Z" fill="#f7f8ff" opacity=".9"/>
  <g fill="#ffffff" opacity=".12">
    <circle cx="151" cy="130" r="42"/>
    <circle cx="792" cy="462" r="72"/>
    <circle cx="238" cy="270" r="18"/>
    <circle cx="755" cy="176" r="24"/>
  </g>
</svg>
