<svg xmlns="http://www.w3.org/2000/svg" viewBox="0 0 512 512">
  <defs>
    <linearGradient id="g" x1="76" y1="72" x2="438" y2="436" gradientUnits="userSpaceOnUse">
      <stop stop-color="#16c7b7"/>
      <stop offset=".45" stop-color="#7c5cff"/>
      <stop offset="1" stop-color="#ffb35c"/>
    </linearGradient>
  </defs>
  <rect width="512" height="512" rx="112" fill="#080b12"/>
  <path d="M116 350c48-93 88-155 171-197 38-19 76-29 109-33-28 37-63 66-104 85l90 82c10 9 11 25 2 36s-25 12-36 3l-108-96c-28 25-50 56-72 99l84-14c13-2 27 7 29 20 2 14-7 27-21 30l-116 20c-21 4-38-17-28-35Z" fill="url(#g)"/>
  <circle cx="324" cy="114" r="38" fill="#f7f8ff"/>
  <path d="M132 394h250" stroke="#f7f8ff" stroke-width="24" stroke-linecap="round" opacity=".88"/>
</svg>
